<svg width="53" height="20" viewBox="0 0 53 20" fill="none" xmlns="http://www.w3.org/2000/svg">
<rect x="-13" y="-29" width="78" height="78" rx="17" fill="#202020"/>
<path fill-rule="evenodd" clip-rule="evenodd" d="M0.00718521 10.6481C0.00718521 9.11256 0.951247 7.79906 2.2883 7.25719C2.67935 7.10816 3.12385 7.00941 3.62426 6.99219L3.65482 6.99097C3.69843 6.99097 3.74239 6.99219 3.78635 6.99341C3.91764 6.99097 4.05416 6.99462 4.19785 7.00562V8.1775C4.19785 8.1775 4.20165 8.17628 4.20384 8.17506L4.21126 8.17028L4.21599 8.16784L4.22101 8.16406L4.23439 8.15687H4.2356L4.24159 8.15306L4.25023 8.14806L4.25877 8.14222L4.2612 8.141L4.2674 8.13722L4.28798 8.125L4.29895 8.11781L4.3233 8.10316L4.32817 8.09937L4.33537 8.09437L4.34874 8.08716L4.36349 8.07875L4.36969 8.07372L4.3769 8.06872L4.3927 8.05909L4.40745 8.04931L4.41587 8.04444L4.42329 8.03969L4.44022 8.02966L4.45727 8.01881L4.46821 8.01159L4.47445 8.00781L4.49259 7.99559L4.51095 7.98475L4.52436 7.97594L4.53022 7.97253L4.54993 7.96031L4.56919 7.94691L4.58512 7.93688L4.59011 7.93469L4.61072 7.92125L4.63251 7.90784L4.64969 7.89563L4.65468 7.89306L4.67647 7.87963L4.69826 7.865L4.71921 7.85156L4.72165 7.85034L4.74599 7.83556L4.76903 7.81969L4.79217 7.80531L4.81639 7.78944L4.84199 7.77222L4.89312 7.74059L4.91871 7.72338L4.94549 7.70631L4.94805 7.70497L4.97227 7.68909L4.99921 7.67225L5.02721 7.65381L5.03098 7.65125L5.0552 7.63684L5.11135 7.59997L5.11855 7.59534L5.14035 7.58191L5.16968 7.56213L5.19905 7.54406L5.20744 7.53784L5.22826 7.52441L5.2586 7.50622L5.28903 7.48656L5.3 7.47937L5.31936 7.46716L5.34994 7.44628L5.38037 7.42688C6.7541 6.54528 8.82915 5.20031 8.82915 5.20031C8.82915 5.20031 4.2612 2.24122 4.19542 2.22412V3.34594C1.97532 3.88781 0.466428 6.12781 0 8.31653V0H6.48969C8.47841 0 10.0117 0.478407 11.0882 1.43309C12.165 2.38903 12.7032 3.74034 12.7032 5.48816C12.7032 7.00941 12.1077 8.25184 10.9189 9.21875C11.9444 9.73278 12.6826 10.3638 13.1331 11.1144C13.5848 11.864 13.8102 12.8356 13.8102 14.0284C13.8102 15.9803 13.2672 17.4547 12.1794 18.4521C11.0932 19.4481 9.33954 19.9475 6.9208 19.9475H0C0 16.8482 0.00377528 13.7438 0.00377528 10.6481H0.00718521ZM6.86126 16.5869C8.62469 16.5869 9.50639 15.7338 9.50639 14.0284C9.50639 13.1444 9.27622 12.5122 8.81452 12.1312C8.45041 11.8322 7.90726 11.6503 7.18156 11.5869H7.17302L7.16342 11.5856L7.15463 11.5843H7.14624L7.12663 11.5819H7.11821L7.09885 11.5809L7.09022 11.5797H7.08046L7.06085 11.5785L7.05246 11.5772L7.0427 11.5759H7.02312V11.5747H7.00507L6.99535 11.5735H6.98537L6.97574 11.5722H6.9661L6.95734 11.5709H6.93798L6.93299 11.5697H6.91837L6.90877 11.5687H6.88682L6.87722 11.5675H6.85761L6.84785 11.5663H6.81742L6.80766 11.5649H6.77711L6.76748 11.5637H6.72729L6.71756 11.5625H6.65056L6.64679 11.5613H5.13913C4.54494 11.5613 4.24779 11.9103 4.24779 12.61V16.5869H6.86126Z" fill="white"/>
<path fill-rule="evenodd" clip-rule="evenodd" d="M19.9286 3.60719C19.5193 3.60719 19.2271 3.70972 19.0528 3.91469C18.8789 4.12122 18.791 4.46031 18.791 4.93287V9.03309H24.7815L24.1374 12.6403H18.791V19.9475H14.547V3.91469C14.547 2.62097 14.8855 1.64441 15.5614 0.986219C16.2385 0.328501 17.2434 0 18.5756 0H26.3881L25.773 3.60719H19.9286Z" fill="white"/>
<path fill-rule="evenodd" clip-rule="evenodd" d="M35.1088 3.57653V19.9475H30.8635V3.57653H26.5913L27.2015 0H40.2139H37.6468L39.4189 3.57653H35.1088Z" fill="white"/>
<path fill-rule="evenodd" clip-rule="evenodd" d="M45.4397 13.6572L42.579 19.9475H38.1803L43.2867 9.68031L38.4883 0H43.0407L52.9136 19.9475H48.3005L45.4397 13.6572ZM46.0972 4.56653L48.1458 0H52.4825L48.1676 8.73059L46.0972 4.56653Z" fill="white"/>
</svg>
